#!OML:ASF H:\MichaelJackson\Top Level 1\Subject 1\Session 1\male.ASF
:FULLY-SPECIFIED
:DEGREES
684
root 5.28902 16.7307 1.38357 8.40274 -4.27157 -8.2918
lowerback -1.23843 4.31297 5.16082
upperback -0.145644 5.66543 1.89419
thorax 0.848782 2.84412 -0.801927
lowerneck -5.23836 -2.94802 2.19712
upperneck 0.2249 -4.06874 0.308897
head 0.897438 -2.02391 -0.360733
rclavicle -7.8843e-014 -2.33572e-014
rhumerus -50.9545 0.775306 -87.4317
rradius 79.4403
rwrist 17.5548
rhand -23.1004 -32.1063
rfingers 7.12502
rthumb 3.34613 -62.0598
lclavicle -7.8843e-014 -2.33572e-014
lhumerus -62.8223 -3.56021 98.5488
lradius 45.5775
lwrist 9.28651
lhand 12.4221 13.3073
lfingers 7.12502
lthumb 37.4198 39.2621
rfemur -4.15995 0.44876 32.6706
rtibia 21.8788
rfoot -23.1704 10.5454
rtoes 24.0276
lfemur -44.4207 2.37107 -9.45437
ltibia 26.7023
lfoot -11.9371 1.29024
ltoes 21.4003
685
root 5.30259 16.6856 1.57239 8.38832 -4.80395 -8.68929
lowerback -1.47027 4.53834 5.42757
upperback -0.211164 5.94662 2.00995
thorax 0.940209 2.98562 -0.802499
lowerneck -5.12924 -2.9719 2.18122
upperneck 0.159459 -4.09492 0.241477
head 0.85703 -2.03884 -0.376233
rclavicle 9.33542e-014 1.35174e-014
rhumerus -50.408 1.68959 -87.8239
rradius 79.4415
rwrist 18.6543
rhand -23.7124 -34.7886
rfingers 7.12502
rthumb 2.75508 -64.7506
lclavicle 9.33542e-014 1.35174e-014
lhumerus -62.9254 -2.93797 98.3361
lradius 45.4847
lwrist 9.44151
lhand 11.96 12.9298
lfingers 7.12502
lthumb 36.9829 38.9987
rfemur -3.01465 0.264617 32.859
rtibia 21.3015
rfoot -23.6591 11.1162
rtoes 24.1926
lfemur -44.1995 0.500644 -7.48812
ltibia 24.5712
lfoot -12.3053 4.72993
ltoes 20.7953
686
root 5.31684 16.6369 1.76314 8.37096 -5.32837 -9.15599
lowerback -1.70612 4.7743 5.74654
upperback -0.270421 6.23838 2.15651
thorax 1.04415 3.13278 -0.796335
lowerneck -5.03022 -3.00491 2.15828
upperneck 0.119836 -4.13369 0.184242
head 0.826692 -2.05958 -0.388222
rclavicle -6.4605e-015 1.88845e-015
rhumerus -49.7962 2.61502 -88.1868
rradius 79.4589
rwrist 18.7531
rhand -23.9963 -36.7872
rfingers 7.12502
rthumb 2.48096 -66.7525
lclavicle -6.4605e-015 1.88845e-015
lhumerus -62.9542 -2.29355 98.0658
lradius 45.3301
lwrist 9.64974
lhand 11.2512 12.4419
lfingers 7.12502
lthumb 36.3121 38.6812
rfemur -1.86412 0.076394 33.0884
rtibia 20.7491
rfoot -24.1038 11.7727
rtoes 24.5104
lfemur -44.0553 -2.88755 -4.35054
ltibia 22.7896
lfoot -12.8775 10.0843
ltoes 20.2912
687
root 5.33119 16.5844 1.95676 8.36203 -5.83301 -9.65778
lowerback -1.95294 5.0201 6.08297
upperback -0.33434 6.54008 2.31706
thorax 1.1516 3.28489 -0.781211
lowerneck -4.95521 -3.05082 2.13841
upperneck 0.125979 -4.19113 0.139884
head 0.814769 -2.08896 -0.398231
rclavicle -9.0944e-014 -2.75317e-014
rhumerus -49.1317 3.52291 -88.5166
rradius 79.4822
rwrist 18.0868
rhand -23.9921 -38.0807
rfingers 7.12502
rthumb 2.48495 -68.046
lclavicle -9.0944e-014 -2.75317e-014
lhumerus -62.9368 -1.65663 97.7398
lradius 45.1361
lwrist 9.91006
lhand 10.335 11.8975
lfingers 7.12502
lthumb 35.444 38.3487
rfemur -0.727866 -0.0931719 33.3318
rtibia 20.2436
rfoot -24.5282 12.4496
rtoes 24.8939
lfemur -44.0679 -2.68889 -3.401
ltibia 21.3581
lfoot -13.3696 11.3751
ltoes 19.6208
688
root 5.34503 16.5295 2.15263 8.3617 -6.30516 -10.1661
lowerback -2.2035 5.26838 6.40286
upperback -0.411368 6.84374 2.48298
thorax 1.24647 3.43741 -0.748951
lowerneck -4.91219 -3.10648 2.11702
upperneck 0.193257 -4.26316 0.117379
head 0.827703 -2.12472 -0.403098
rclavicle -2.18725e-014 -1.0138e-014
rhumerus -48.4312 4.41871 -88.8147
rradius 79.5031
rwrist 16.9048
rhand -23.6912 -38.7405
rfingers 7.12502
rthumb 2.77563 -68.7022
lclavicle -2.18725e-014 -1.0138e-014
lhumerus -62.8984 -1.03533 97.3603
lradius 44.9273
lwrist 10.2163
lhand 9.21501 11.3267
lfingers 7.12502
lthumb 34.3814 38.025
rfemur 0.378276 -0.223144 33.5734
rtibia 19.804
rfoot -24.9407 13.0899
rtoes 25.2784
lfemur -44.1417 -2.51526 -2.42801
ltibia 20.2448
lfoot -13.9317 12.6925
ltoes 18.9218
